<svg xmlns="http://www.w3.org/2000/svg" width="90.6" height="95.1"><path fill="#fff" d="M24.2 70.8c-.2-.2-.6-.2-.8 0l-1.6 1.7v-5.3c0-.3-.3-.6-.6-.6s-.6.3-.6.6v5.5c-.5.2-.8.7-.8 1.2 0 .8.6 1.4 1.4 1.4.8 0 1.4-.6 1.4-1.4 0-.2 0-.3-.1-.5l1.7-1.8c.2-.2.2-.5 0-.8z"/><path fill="#fff" d="M34.7 74v-.1c0-7.3-5.8-13.2-13-13.5h-1.2c-7.2.3-13 6.3-13 13.5 0 7.5 6.1 13.5 13.5 13.5 7.6-.1 13.6-6 13.7-13.4zm-6.9 10.2l-1.1-2c-.2-.3-.5-.4-.8-.2-.3.2-.4.5-.2.8l1.1 2c-1.5.8-3.2 1.2-5 1.3v-3.8c0-.3-.3-.6-.6-.6s-.6.3-.6.6v3.8c-1.8-.1-3.5-.5-5-1.3l1.1-2c.2-.3.1-.6-.2-.8-.3-.2-.6-.1-.8.2l-1.1 2c-1.5-.9-2.8-2.2-3.7-3.7l2-1.2c.3-.2.4-.5.2-.8-.2-.3-.5-.4-.8-.2l-2.1 1.2c-.8-1.5-1.3-3.2-1.4-5h2.8c.3 0 .6-.3.6-.6s-.3-.6-.6-.6H8.8c.1-1.8.5-3.6 1.3-5.1l2.2 1.3c.1.1.2.1.3.1.2 0 .4-.1.5-.3.2-.3.1-.6-.2-.8l-2.2-1.3c1-1.5 2.2-2.8 3.8-3.8l1.3 2.3c.1.2.3.3.5.3.1 0 .2 0 .3-.1.3-.2.4-.5.2-.8l-1.3-2.3c1.6-.8 3.3-1.3 5.2-1.4v3.1c0 .3.3.6.6.6s.6-.3.6-.6v-3.1c1.9.1 3.6.6 5.2 1.4l-1.3 2.3c-.2.3-.1.6.2.8-.1.1 0 .1.1.1.2 0 .4-.1.5-.3l1.3-2.3c1.5 1 2.8 2.3 3.7 3.8l-2.2 1.3c-.3.2-.4.5-.2.8.1.2.3.3.5.3.1 0 .2 0 .3-.1l2.2-1.3c.8 1.6 1.2 3.3 1.3 5.1h-3.8c-.3 0-.6.3-.6.6s.3.6.6.6h3.8c-.1 1.8-.6 3.5-1.4 5.1L30 78.4c-.3-.2-.6-.1-.8.2-.2.3-.1.6.2.8l2.1 1.2c-.9 1.5-2.2 2.7-3.7 3.6z"/><path fill="#fff" d="M90.1 64.8L79.4 39.5V12.1c0-3.5-2.9-6.4-6.4-6.4h-7.9l-.8-1.8C62.9.7 59.2-.9 55.9.5L43.7 5.7H30.4c-3.5 0-6.4 2.9-6.4 6.4v2l-7.3 3.1c-3.2 1.4-4.8 5.1-3.4 8.4L24 50.9v2c-.9-.1-1.8-.2-2.8-.2C9.5 52.7 0 62.2 0 73.9s9.5 21.2 21.2 21.2c7.3 0 13.7-3.7 17.6-9.3l.3.7c1 2.4 3.4 3.9 5.9 3.9.8 0 1.7-.2 2.5-.5l12.3-5.2h13.3c3.5 0 6.4-2.9 6.4-6.4v-2l7.3-3.1c3.1-1.4 4.6-5.2 3.3-8.4zM56.9 2.7c.5-.2 1-.3 1.6-.3 1.6 0 3 .9 3.7 2.4l.4.9H49.8l7.1-3zM15.5 24.5c-.9-2 .1-4.4 2.1-5.2l6.4-2.7v28.1l-8.5-20.2zm5.7 30.4c2.6 0 5 .5 7.2 1.4L26.9 60c-1.7-.7-3.7-1.1-5.7-1.1v-4zm-7.1 1.5l1.5 3.7c-1.8.8-3.4 1.8-4.8 3.2l-2.9-2.8c1.8-1.8 3.9-3.2 6.2-4.1zM3.9 66.6l3.7 1.5c-.7 1.7-1.1 3.7-1.1 5.7h-4c-.1-2.6.4-5 1.4-7.2zm4 20.5c-1.7-1.7-3.1-3.8-4.1-6.1l3.7-1.5c.8 1.8 1.9 3.4 3.2 4.8l-2.8 2.8zm13.3 5.5c-2.5 0-5-.5-7.2-1.4l1.5-3.7c1.7.7 3.7 1.1 5.7 1.1v4zM8.8 73.8c0-6.9 5.6-12.4 12.4-12.4 6.9 0 12.4 5.6 12.4 12.4 0 6.9-5.6 12.4-12.4 12.4-6.8 0-12.4-5.6-12.4-12.4zm22.9-10.5l2.8-2.8c1.7 1.7 3.1 3.8 4.1 6.1l-3.7 1.5c-.7-1.8-1.8-3.4-3.2-4.8zm-3.2 27.9l-1.6-3.7c1.8-.8 3.4-1.8 4.8-3.2l2.8 2.8c-1.7 1.7-3.7 3.1-6 4.1zm6.4-11.8c.7-1.7 1.1-3.7 1.1-5.7h4c0 2.5-.5 5-1.4 7.2l-3.7-1.5zm11.6 8.2c-2 .8-4.4-.1-5.2-2.1l-.4-.9h12.7l-7.1 3zM77 78.2c0 2.2-1.8 4-4 4H40.7c1.1-2.6 1.7-5.4 1.7-8.4 0-9.9-6.9-18.3-16.1-20.6V12.1c0-2.2 1.8-4 4-4h42.6c2.2 0 4 1.8 4 4l.1 66.1zm8.8-7.2l-6.4 2.7v-28l8.5 20.1c.8 1.9-.1 4.3-2.1 5.2z"/><path fill="#fff" d="M53.4 36.7l-.1.1c-.2.1-.4.3-.5.5-.1.2-.3.3-.4.5-.1.1-.1.2-.2.3v.1c0 .1-.1.2-.1.3 0 .1-.1.2-.1.3v1.4c0 .1 0 .1.1.2 0 .1.1.3.2.4v.1c.1.1.2.2.2.4.1.1.1.2.2.2l.2.2c.1.1.2.1.4.2.1 0 .1.1.2.1s.3 0 .4-.1c.1-.1.2-.2.2-.4v-.8c0-.1.1-.2.1-.3v-.1l.1-.1.1-.1.1-.1c.1 0 .1-.1.2-.1s.1-.1.2-.1l.1-.1.2-.1.4-.2c.4-.2.7-.5 1-.9.3-.4.5-.8.7-1.2.1-.4.2-.8.2-1.3 0-.4-.1-.7-.2-1.1-.2-.5-.5-.9-.9-1.2-.1-.1-.2-.2-.3-.2-.1 0-.1-.1-.2-.1-.1-.1-.3 0-.4 0-.1.1-.2.2-.2.4v.4c-.1.3-.1.6-.3.9-.1.1-.1.3-.2.4-.1.1-.1.2-.2.3l-.3.3c-.1.1-.2.2-.4.3l-.2.1h-.1l-.1.1-.2.1h.1zm1.1 3.5zm-.8-9.7c.1.6.1 1.2 0 1.8-.1.6-.4 1.2-.7 1.8-.3.5-.7 1-1.2 1.4l-.5.4-.3.2-.2.1c-.1.1-.2.1-.3.2l-.2.2s-.1.1-.2.1l-.1.1-.1.2v.2c-.1.2-.1.4-.1.5v1.2c0 .3-.2.5-.5.6h-.5c-.2 0-.4-.1-.5-.2-.1-.1-.2-.1-.3-.2-.1-.1-.2-.2-.4-.3h-.1l-.4-.4-.1-.1c-.1-.2-.2-.3-.3-.5 0-.1-.1-.2-.1-.3v-.1c0-.1-.1-.2-.1-.3V37c-.1-.3-.1-.6-.1-.9v-.5c0-.2 0-.3.1-.5 0-.1.1-.3.1-.4v-.1c0-.2.1-.3.2-.5.1-.3.3-.5.4-.8.2-.3.4-.5.6-.7l.1-.1.1-.1c.1-.1.2-.1.2-.2l.1-.1.3-.2c.2-.2.4-.3.5-.5l.4-.4c.1-.2.2-.3.3-.5.1-.2.2-.4.2-.6.1-.5.1-.9.2-1.4v-.6c0-.3.2-.5.5-.5h.1c.1 0 .2.1.3.1h.1c.2.1.3.2.5.2.6.4 1.1.9 1.4 1.5.3.4.4.8.6 1.3zm15.2 20c.8-3.1-1.1-6.3-4.3-7.1-.5-.1-.9-.2-1.4-.2H39.7c-.8 0-1.5.7-1.5 1.5v.1c.2 2.8.7 5.6 1.4 8.3.6 2 1.7 3.9 3.3 5.3h-2c-.9 0-1.7.8-1.7 1.7 0 .9.8 1.7 1.7 1.7h19.2c.9 0 1.7-.8 1.7-1.7 0-.9-.8-1.7-1.7-1.7h-2c1.1-1 2-2.2 2.6-3.5h2.6c2.6.1 5-1.8 5.6-4.4zm-3.4-.8c-.2 1-1.2 1.8-2.2 1.8h-1.5c.4-1.5.6-3.1.8-4.6h.7c1.3 0 2.3 1 2.3 2.3 0 .1-.1.3-.1.5z"/></svg>